# xmcd
#
# Track frame offsets:
#	150
#	17224
#	36549
#	54142
#	75869
#	93909
#	113359
#	128954
#	148079
#	167745
#	180783
#	200051
#	216300
#	236268
#	251843
#	268858
#	284304
#	295520
#	311062
#	327444
#
# Disc length: 4536 seconds
#
# Revision: 0
# Processed by: cddbd v1.5.2PL0 Copyright (c) Steve Scherf et al.
# Submitted via: SynApp - FreeCDDB Version: 2.3
#
DISCID=1c11b614
DTITLE=The Corrs - Dreams/The ultimate Corrs Collection
DYEAR=2006
DGENRE=Ballad
TTITLE0=Goodbye (2006 Remix)
TTITLE1=Forgiven not Forgotten
TTITLE2=Dream`s (Tee`s Radio Mix)
TTITLE3=Radio (unplugged)
TTITLE4=When the Stars go Blue (Featuring Bono)
TTITLE5=Only when i sleep
TTITLE6=Breathless
TTITLE7=So Young
TTITLE8=Runaway
TTITLE9=Summer sunshine
TTITLE10=Whatcan i do /Tin tin out Remix)
TTITLE11=All i have to do is dream
TTITLE12=No frontiers
TTITLE13=Angel
TTITLE14=Old town
TTITLE15=Ruby Tuesday
TTITLE16=Haste to the wedding
TTITLE17=I know my love
TTITLE18=Brid og ni mhaille
TTITLE19=Toss the feathers
EXTD=
EXTT0=
EXTT1=
EXTT2=
EXTT3=
EXTT4=
EXTT5=
EXTT6=
EXTT7=
EXTT8=
EXTT9=
EXTT10=
EXTT11=
EXTT12=
EXTT13=
EXTT14=
EXTT15=
EXTT16=
EXTT17=
EXTT18=
EXTT19=
PLAYORDER=
